<svg width="184" height="32" viewBox="0 0 184 32" fill="none" xmlns="http://www.w3.org/2000/svg">
<path d="M10.804 4.5C10.06 4.5 9.496 4.692 9.112 5.076C8.728 5.436 8.536 5.904 8.536 6.48V7.56H13.036V11.34H8.536V27H3.64V11.34H0.58V7.56H3.64C3.64 6.384 3.7 5.388 3.82 4.572C3.964 3.732 4.336 2.988 4.936 2.34C5.488 1.716 6.1 1.284 6.772 1.044C7.444 0.779999 8.02 0.635998 8.5 0.611999C8.98 0.563999 9.688 0.539999 10.624 0.539999H13.036V4.5H10.804ZM22.3147 8.496C23.4187 7.824 24.7147 7.488 26.2027 7.488C26.4667 7.488 26.8387 7.512 27.3187 7.56V12.132C26.8867 12.012 26.4307 11.952 25.9507 11.952C25.0627 11.952 24.2467 12.12 23.5027 12.456C22.6387 12.864 21.9787 13.464 21.5227 14.256C21.0667 15.024 20.8387 15.96 20.8387 17.064V27H15.9067V7.56H20.2267V10.692C20.7547 9.756 21.4507 9.024 22.3147 8.496ZM39.1391 27.54C37.2191 27.54 35.5151 27.108 34.0271 26.244C32.5391 25.356 31.3751 24.144 30.5351 22.608C29.7191 21.048 29.3111 19.272 29.3111 17.28C29.3111 15.288 29.7311 13.512 30.5711 11.952C31.4111 10.392 32.5751 9.18 34.0631 8.316C35.5511 7.452 37.2431 7.02 39.1391 7.02C41.0591 7.02 42.7631 7.464 44.2511 8.352C45.7631 9.216 46.9271 10.428 47.7431 11.988C48.5831 13.524 49.0031 15.288 49.0031 17.28C49.0031 19.272 48.5831 21.048 47.7431 22.608C46.9271 24.168 45.7631 25.38 44.2511 26.244C42.7631 27.108 41.0591 27.54 39.1391 27.54ZM39.1391 22.968C40.6511 22.968 41.8031 22.452 42.5951 21.42C43.4111 20.388 43.8191 19.008 43.8191 17.28C43.8191 15.504 43.4111 14.112 42.5951 13.104C41.8031 12.096 40.6511 11.592 39.1391 11.592C37.5791 11.592 36.4151 12.108 35.6471 13.14C34.8791 14.148 34.4951 15.528 34.4951 17.28C34.4951 19.056 34.8911 20.448 35.6831 21.456C36.4751 22.464 37.6271 22.968 39.1391 22.968ZM63.5814 6.984C66.7974 6.984 68.8614 7.992 69.7734 10.008C70.7094 12 71.1774 14.028 71.1774 16.092V27H66.2094V17.82C66.2094 16.188 65.9574 14.748 65.4534 13.5C64.9734 12.228 63.8334 11.592 62.0334 11.592C60.9054 11.592 59.9334 11.988 59.1174 12.78C58.3014 13.548 57.8934 15 57.8934 17.136V27H52.9254V7.56H57.2814V9.576C58.8174 7.848 60.9174 6.984 63.5814 6.984ZM81.8961 18.468C81.8961 18.66 81.8961 19.044 81.8961 19.62C81.8961 20.196 81.9201 20.676 81.9681 21.06C82.0401 21.444 82.1481 21.744 82.2921 21.96C82.5561 22.392 82.9281 22.692 83.4081 22.86C83.9121 23.028 84.5121 23.112 85.2081 23.112C85.8561 23.112 86.6241 23.052 87.5121 22.932V27C86.1921 27.24 85.0281 27.36 84.0201 27.36C82.5561 27.36 81.2841 27.144 80.2041 26.712C79.1241 26.256 78.3201 25.548 77.7921 24.588C77.4561 23.988 77.2401 23.388 77.1441 22.788C77.0481 22.164 77.0001 21.408 77.0001 20.52V18.756V11.34H73.6881V7.56H77.0001V2.16H81.8961V7.56H87.5121V11.34H81.8961V18.468Z" fill="#191B1D"/>
<path d="M89.3242 27.792H113.084V31.572H89.3242V27.792ZM121.658 18.468C121.658 18.66 121.658 19.044 121.658 19.62C121.658 20.196 121.682 20.676 121.73 21.06C121.802 21.444 121.91 21.744 122.054 21.96C122.318 22.392 122.69 22.692 123.17 22.86C123.674 23.028 124.274 23.112 124.97 23.112C125.618 23.112 126.386 23.052 127.274 22.932V27C125.954 27.24 124.79 27.36 123.782 27.36C122.318 27.36 121.046 27.144 119.966 26.712C118.886 26.256 118.082 25.548 117.554 24.588C117.218 23.988 117.002 23.388 116.906 22.788C116.81 22.164 116.762 21.408 116.762 20.52V18.756V11.34H113.45V7.56H116.762V2.16H121.658V7.56H127.274V11.34H121.658V18.468ZM134.692 18.648C134.884 20.04 135.364 21.108 136.132 21.852C136.9 22.596 137.944 22.968 139.264 22.968C140.224 22.968 141.04 22.764 141.712 22.356C142.408 21.924 142.936 21.312 143.296 20.52L148.192 21.924C147.472 23.676 146.32 25.056 144.736 26.064C143.176 27.048 141.448 27.54 139.552 27.54C137.584 27.54 135.832 27.12 134.296 26.28C132.76 25.416 131.56 24.228 130.696 22.716C129.856 21.18 129.436 19.452 129.436 17.532C129.436 15.444 129.844 13.608 130.66 12.024C131.5 10.416 132.664 9.18 134.152 8.316C135.64 7.452 137.344 7.02 139.264 7.02C141.136 7.02 142.756 7.44 144.124 8.28C145.516 9.096 146.584 10.272 147.328 11.808C148.072 13.344 148.444 15.144 148.444 17.208C148.444 17.496 148.42 17.976 148.372 18.648H134.692ZM139.48 11.268C136.888 11.268 135.34 12.516 134.836 15.012H143.404C143.236 13.716 142.828 12.768 142.18 12.168C141.556 11.568 140.656 11.268 139.48 11.268ZM160.014 27.54C157.566 27.54 155.586 26.988 154.074 25.884C152.586 24.78 151.674 23.208 151.338 21.168L156.342 20.412C156.534 21.324 156.978 22.044 157.674 22.572C158.394 23.076 159.294 23.328 160.374 23.328C161.262 23.328 161.946 23.16 162.426 22.824C162.906 22.488 163.146 22.008 163.146 21.384C163.146 20.976 163.038 20.664 162.822 20.448C162.63 20.232 162.222 20.016 161.598 19.8C160.998 19.56 159.954 19.248 158.466 18.864C156.09 18.24 154.41 17.508 153.426 16.668C152.466 15.804 151.986 14.628 151.986 13.14C151.986 11.268 152.682 9.78 154.074 8.676C155.49 7.572 157.374 7.02 159.726 7.02C162.006 7.02 163.878 7.536 165.342 8.568C166.83 9.6 167.706 11.004 167.97 12.78L162.966 13.68C162.87 12.912 162.51 12.312 161.886 11.88C161.286 11.448 160.47 11.232 159.438 11.232C158.646 11.232 158.01 11.376 157.53 11.664C157.074 11.952 156.846 12.36 156.846 12.888C156.846 13.248 156.966 13.536 157.206 13.752C157.446 13.968 157.914 14.196 158.61 14.436C159.306 14.652 160.446 14.964 162.03 15.372C164.238 15.948 165.81 16.68 166.746 17.568C167.682 18.432 168.15 19.62 168.15 21.132C168.15 23.124 167.43 24.696 165.99 25.848C164.55 26.976 162.558 27.54 160.014 27.54ZM178.154 18.468C178.154 18.66 178.154 19.044 178.154 19.62C178.154 20.196 178.178 20.676 178.226 21.06C178.298 21.444 178.406 21.744 178.55 21.96C178.814 22.392 179.186 22.692 179.666 22.86C180.17 23.028 180.77 23.112 181.466 23.112C182.114 23.112 182.882 23.052 183.77 22.932V27C182.45 27.24 181.286 27.36 180.278 27.36C178.814 27.36 177.542 27.144 176.462 26.712C175.382 26.256 174.578 25.548 174.05 24.588C173.714 23.988 173.498 23.388 173.402 22.788C173.306 22.164 173.258 21.408 173.258 20.52V18.756V11.34H169.946V7.56H173.258V2.16H178.154V7.56H183.77V11.34H178.154V18.468Z" fill="white"/>
</svg>
